<?xml version="1.0" encoding="UTF-8"?>
<svg xmlns="http://www.w3.org/2000/svg" id="Layer_1" data-name="Layer 1" viewBox="0 0 200 200">
  <defs>
    <style>.cls-1{fill:#fff;}</style>
  </defs>
  <title>0</title>
  <path class="cls-1" d="M154.88,135h.24c-14.36-12.68-17.74-23.44-18.67-29.56-.58-3.89-1.11-12.29-1.43-17.09-.41-6.5-.62-11.86-.74-15.56a46,46,0,0,0-1.95-12A57.68,57.68,0,0,0,137.8,57V28l24.81-7.38-62-17.37L41,20.57l9.1,2.75v24.4a3.17,3.17,0,0,0-2.63,3.12,3.21,3.21,0,0,0,1.89,2.93L48.24,66.7a2.85,2.85,0,0,0,4.54,0c-.36-4.27-.74-8.55-1.12-12.81a3.19,3.19,0,0,0,.12-6v-24l10.75,3.25V57a55.44,55.44,0,0,0,6,4.23,33.32,33.32,0,0,0-1.16,7.67c-.44,8.9-1.1,16.48-1.74,22.41-1.16,10.89-2.09,15.21-3.7,19.78a74.28,74.28,0,0,1-4.65,10.37,84.13,84.13,0,0,1-8.76,13.12c-5.69,4.92-11.67,11.82-11.67,19.14V198.8H94.44L92.9,133.47,82,117.91c19.79,18.28,36.62.76,37.32,0-.7,1.46-1.48,2.95-2.32,4.45a106.91,106.91,0,0,1-7,11.09l1.56,65.33H166V153.68C166,146.58,160.41,139.88,154.88,135Zm-40.2-18.67c-1.85,1.18-11.51,7.12-21.55,3.6-6.94-2.45-10.44-8.14-14.23-14.28a56.28,56.28,0,0,1-7.78-22c7.8-1.87,14.22-3.31,18.67-4.27,13.28-2.91,14.69-2.91,19.22-4.63,7-2.66,11.25-5.56,12.24-4.41s-1.47,4.48-3.46,7.1h12.45S131.79,102.37,114.68,116.35Z"></path>
  <path class="cls-1" d="M116.28,149.36c-1.26,3-15.54,2.69-24.58-4.4-1-.77-5.42-4.25-4.55-6.72a3.54,3.54,0,0,1,2.41-1.84,29.86,29.86,0,0,0,6.31,6.73c2.61,2,5.84,4.55,10.39,5.2,4.95.7,9.52-1.09,10.07.29A1,1,0,0,1,116.28,149.36Z"></path>
  <path class="cls-1" d="M119.8,125.92c2.13,2.41-4.25,15.18-14.53,20.3-1.12.56-6.17,3.07-8,1.22a3.53,3.53,0,0,1-.63-3,29.69,29.69,0,0,0,8.79-2.81c3-1.48,6.62-3.31,9.16-7.15,2.76-4.16,3.11-9,4.6-9A1,1,0,0,1,119.8,125.92Z"></path>
</svg>
