<?xml version="1.0" encoding="UTF-8"?>
<svg xmlns="http://www.w3.org/2000/svg" id="Layer_1" data-name="Layer 1" viewBox="0 0 90.65 146">
  <defs>
    <style>.cls-1{fill:#fff;}</style>
  </defs>
  <title>0</title>
  <path class="cls-1" d="M59.22,116.56l-21.61,2.79,0,1.55,19.2,2.54L40,126.34a13.68,13.68,0,0,1,5.07,5.15c2.58,4.76,2.05,11.23,0,12-1.22.46-2.91-1.07-5.13-3.18a30.85,30.85,0,0,1-4.71-5.78c-2.07-3.26-4.31-6.54-5.59-10.13a21.48,21.48,0,0,1-.68-8.88c1.6-17.89-6-32.54-16-46.33C2.48,55,1,39.71,9.11,24.33c8-15.1,21.37-22.27,38.49-21.75C61.9,3,80.44,13.15,85.15,32.46,89.41,49.94,80.67,68.77,63.8,77.4a52.28,52.28,0,0,0,6.75-8.55C73.36,64.42,83.78,47.94,77.3,32A31.76,31.76,0,0,0,65.11,17.56c-11-7.13-28.88-9.2-41.32,1.54a32.47,32.47,0,0,0-7,40.68c2.82,4.86,6.58,9.17,9.43,14,5.91,10,10.66,20.58,11,32.69L56.63,109l-19.17,3.16c0,.5,0,1,0,1.51Z"></path>
  <path class="cls-1" d="M64.1,65.4a.59.59,0,0,0,.48-.26.58.58,0,0,0,0-.53l-3.37-8.33s0,0,0-.05a5.87,5.87,0,0,0-4.45-2.83,3.48,3.48,0,0,1-1.88-1.72,5.49,5.49,0,0,1,.29-4.42,22.51,22.51,0,0,0,1.4-4.47,3.14,3.14,0,0,0,1.14-2.21,5.17,5.17,0,0,0,0-1.36v0a3.26,3.26,0,0,0-.9-2.08,3.32,3.32,0,0,0-1.38-2.9h0l-.07,0a3.46,3.46,0,0,0-.45-.29.38.38,0,0,0,0-.1h0A3.32,3.32,0,0,0,54.16,32a3.24,3.24,0,0,0-1.68-1,2.8,2.8,0,0,0-.7-.09A3.38,3.38,0,0,0,50,29.79a3.47,3.47,0,0,0-.72-.1h-.11a3.39,3.39,0,0,0-1.4.3A3.75,3.75,0,0,0,45,28.8a3.79,3.79,0,0,0-2.35.82,4.19,4.19,0,0,0-.59-.22,3.82,3.82,0,0,0-.75-.08,3.17,3.17,0,0,0-1.69.49,3.11,3.11,0,0,0-1.17,1.32,3.69,3.69,0,0,0-2.74,2.43,5.32,5.32,0,0,0-1,1.24,2,2,0,0,0-.25.53l0,.06a54.42,54.42,0,0,0-1.77,5.27.56.56,0,0,0,.09.5l1.1,1.5-2.27,5a.57.57,0,0,0,.59.81,2.84,2.84,0,0,1,1.73.19h0a.41.41,0,0,1,0,.16,2,2,0,0,0,.08,1.87c.11.19.12.2,0,.4a1.05,1.05,0,0,0,.29,1.42c.14.11.19.16.13.53a2.35,2.35,0,0,0,.35,2,2.77,2.77,0,0,0,2.36.57,13.49,13.49,0,0,0,1.42-.2c1.57-.26,2-.24,2.25.64v0c.59,1.81,1.26,3.87-1.65,6.57h0s-.84.8-1.73,1.74h0a.57.57,0,0,0,0,.81.56.56,0,0,0,.8,0c.59-.62,1.15-1.17,1.45-1.46h0a3.86,3.86,0,0,0,.89.1c1.64,0,4.84-.84,9.92-5.55,2-1.54,5.23-3.71,6.2-3.78a4.89,4.89,0,0,1,3.54,2.21L63.57,65a.59.59,0,0,0,.53.36ZM53.39,42.59l-.21,0h-.06a.17.17,0,0,0-.1,0,1.23,1.23,0,0,1-.66-.48,1.36,1.36,0,0,1,0-1.1.56.56,0,0,0-.39-.7.57.57,0,0,0-.71.39,2.45,2.45,0,0,0,.17,2,2.13,2.13,0,0,0,.94.84,4.9,4.9,0,0,1-3,2L49,48.85a.52.52,0,0,1-.54.53h-.34a.58.58,0,0,1-.56-.53A27.59,27.59,0,0,1,47,46c0-.29-.37-.42-.64-.46-1.2-.19-.58-1.95-.58-1.95a1.66,1.66,0,0,1-.81-.21,2.74,2.74,0,0,0,1.63-2.24.57.57,0,0,0-.52-.62.59.59,0,0,0-.62.53c-.1,1.21-1.46,1.47-1.52,1.48l-.08,0-.18,0h-.33A2.89,2.89,0,0,1,41.58,42a2.92,2.92,0,0,1-1-1.59,2.8,2.8,0,0,0,2-2.4.57.57,0,0,0-1.14-.1,1.59,1.59,0,0,1-.3.78,1.63,1.63,0,0,1-.65.51l-.15,0h0a3.49,3.49,0,0,1-1,.13,4.46,4.46,0,0,1-2.56-1A3.91,3.91,0,0,1,35.52,36a.73.73,0,0,1,.12-.54c.27-.41.66-1,1-1.12l0-.09,0-.1a2.62,2.62,0,0,1,.78-1.28,2.56,2.56,0,0,1,1.36-.63l0,0A1.41,1.41,0,0,1,39.18,34a.56.56,0,0,0,0,.44.63.63,0,0,0,.32.3.58.58,0,0,0,.74-.34,2.56,2.56,0,0,0-.62-3,2,2,0,0,1,1.68-.9,1.84,1.84,0,0,1,.47.06,1.44,1.44,0,0,1,.41.15c.07,1.55.76,7.6,7.19,8.7h.09a.57.57,0,0,0,.1-1.14c-5.81-1-6.22-6.54-6.24-7.69A2.68,2.68,0,0,1,45,29.94a2.57,2.57,0,0,1,.62.08,2.51,2.51,0,0,1,1.19.66,3,3,0,0,0-.71,1.72,2.22,2.22,0,0,0,.67,1.65.58.58,0,0,0,.81,0,.57.57,0,0,0,0-.81,1.15,1.15,0,0,1-.36-.83,2.07,2.07,0,0,1,.61-1.21,2.37,2.37,0,0,1,1.29-.4h.09a1.89,1.89,0,0,1,.47.06,2.19,2.19,0,0,1,.8.38,1.78,1.78,0,0,0-.54.52,2.37,2.37,0,0,0-.18,2h0a.58.58,0,0,0,.71.39.57.57,0,0,0,.39-.71,1.23,1.23,0,0,1,0-1h0a1,1,0,0,1,.68-.39h.11a2.07,2.07,0,0,1,.5.06,2.18,2.18,0,0,1,1.11.66,2.25,2.25,0,0,1,.54,1.17V34a1.74,1.74,0,0,1-.89.56,1.79,1.79,0,0,1-1.05,0,.56.56,0,0,0-.7.4.58.58,0,0,0,.4.7,3.51,3.51,0,0,0,.91.13,2.89,2.89,0,0,0,2-.82l.21.14h0a2.24,2.24,0,0,1,1,1.86.44.44,0,0,0-.12.15s-.6,1.11-2.58.58h0a.57.57,0,1,0-.29,1.11,5.41,5.41,0,0,0,1.33.19,2.94,2.94,0,0,0,2.17-.84,2.26,2.26,0,0,1,.39,1.15,4.27,4.27,0,0,1,0,1.13A2,2,0,0,1,55.82,42a3.14,3.14,0,0,1-2.2.65Z"></path>
</svg>
