<?xml version="1.0" encoding="UTF-8"?>
<svg xmlns="http://www.w3.org/2000/svg" viewBox="0 0 163.7 152.6">
  <defs>
    <style>.core_values_whitecls-1{fill:#fff;}</style>
  </defs>
  <title>0</title>
  <g id="Layer_2" data-name="Layer 2">
    <path class="core_values_whitecls-1" d="M79.91,1.6C21.4,20-5,73.32,8.24,108c10.44,27.39,45.27,42.23,74.68,41.48,27.18-.69,60.3-15,70.18-41.48C165.89,73.7,139.11,20.81,79.91,1.6ZM81,41.35c3.76-.82,6.48-4.85,6.61-8.58A6,6,0,0,0,85.45,28c-1.46-1.52-3.49-3-4.93-5.14a12.8,12.8,0,0,1-2.34-7.09,14.57,14.57,0,0,1,1.6-6.93c-.75,4.61.11,9.25,3,12.31a54,54,0,0,0,5,4.43,10.34,10.34,0,0,1,2.51,3.17,8.57,8.57,0,0,1,.9,4.18,12.79,12.79,0,0,1-2.85,7.35,10.36,10.36,0,0,1-6.87,3.84,10.8,10.8,0,0,1-11.27-8C72.69,40,77.17,42.23,81,41.35Zm-2.4,14.26c11,.16,21.82-3.52,31.42-9.75a41.38,41.38,0,0,1-14.2,9.88,44.4,44.4,0,0,1-17.24,3.44,50.78,50.78,0,0,1-8.8-1,45.82,45.82,0,0,1-8.39-2.77,41.16,41.16,0,0,1-14-10.12C56.89,51.69,67.63,55.58,78.63,55.61ZM99.44,71.22a53.89,53.89,0,0,1-19.79,3.7,58.63,58.63,0,0,1-10.08-1.06,54.38,54.38,0,0,1-9.64-3A48.2,48.2,0,0,1,43.49,59.74C54.6,66.74,67,70.87,79.67,70.93A64.72,64.72,0,0,0,98.4,68.29,77.6,77.6,0,0,0,116,60.35,48.23,48.23,0,0,1,99.44,71.22Z"></path>
  </g>
</svg>
