<?xml version="1.0" encoding="UTF-8"?>
<svg id="Layer_1" data-name="Layer 1" xmlns="http://www.w3.org/2000/svg" xmlns:xlink="http://www.w3.org/1999/xlink" viewBox="0 0 500 500">
  <defs>
    <style>
      .cls-1 {
        fill: #37bc12;
      }

      .cls-2 {
        clip-path: url(#clippath-4);
      }

      .cls-3 {
        fill: #fff;
      }

      .cls-4 {
        fill: #004aad;
      }

      .cls-5 {
        fill: #f9c732;
      }

      .cls-6 {
        fill: none;
      }

      .cls-7 {
        clip-path: url(#clippath-1);
      }

      .cls-8 {
        fill: #0067a5;
      }

      .cls-9 {
        clip-path: url(#clippath-5);
      }

      .cls-10 {
        clip-path: url(#clippath-3);
      }

      .cls-11 {
        clip-path: url(#clippath-2);
      }

      .cls-12 {
        clip-path: url(#clippath);
      }
    </style>
    <clipPath id="clippath">
      <rect class="cls-6" x="147.03" y="110.81" width="306.13" height="335.15"/>
    </clipPath>
    <clipPath id="clippath-1">
      <rect class="cls-6" x="68.84" y="61.24" width="220.76" height="306.79"/>
    </clipPath>
    <clipPath id="clippath-2">
      <rect class="cls-6" x="167.56" y="157.64" width="185.19" height="160.94"/>
    </clipPath>
    <clipPath id="clippath-3">
      <rect class="cls-6" x="193.59" y="216.63" width="29.87" height="7.35"/>
    </clipPath>
    <clipPath id="clippath-4">
      <rect class="cls-6" x="232.28" y="172.52" width="30.87" height="26.48"/>
    </clipPath>
    <clipPath id="clippath-5">
      <rect class="cls-6" x="204.36" y="193.12" width="121.52" height="122.71"/>
    </clipPath>
  </defs>
  <g class="cls-12">
    <path class="cls-4" d="M370.12,125.04c7.07,6,13.64,12.57,19.63,19.64l23.37-4.6c1.85,1.2,3.67,2.44,5.48,3.7,7.24,10.35,13.48,21.44,18.6,33.15l-17.3,19.84c3.11,8.65,5.52,17.62,7.19,26.86l24.89,8.54c.79,7.09,1.22,14.3,1.22,21.6s-.42,14.51-1.22,21.6l-24.89,8.54c-1.67,9.23-4.09,18.21-7.19,26.85l17.3,19.84c-5.8,13.3-13.07,25.81-21.6,37.34l-25.84-5.08c-6,7.06-12.57,13.64-19.64,19.64l5.08,25.84c-11.52,8.53-24.03,15.79-37.33,21.6l-19.84-17.3c-8.65,3.1-17.63,5.52-26.86,7.19l-8.54,24.89c-7.09.79-14.3,1.22-21.6,1.22s-14.51-.42-21.6-1.22l-8.54-24.89c-9.24-1.67-18.21-4.09-26.86-7.19l-6.55,5.71c-22.96-21.2-40.28-48.42-49.47-79.15,25.87,34.16,66.86,56.24,113.01,56.24,78.23,0,141.66-63.42,141.66-141.66,0-69.41-49.92-127.15-115.8-139.3,9.88-1.72,20.04-2.62,30.41-2.62,18.76,0,36.82,2.93,53.78,8.34l-.95,4.85"/>
  </g>
  <g class="cls-7">
    <path class="cls-5" d="M146.68,170.15c-4.33,5.91-8.22,12.17-11.61,18.73-16.21,29.58-25.43,63.54-25.43,99.65,0,26.82,5.09,52.44,14.34,75.98l-17.52,3.44c-8.53-11.52-15.79-24.03-21.6-37.34l17.3-19.84c-3.1-8.65-5.53-17.62-7.19-26.85l-24.89-8.54c-.79-7.1-1.22-14.3-1.22-21.6s.42-14.51,1.22-21.6l24.89-8.54c1.66-9.24,4.09-18.21,7.19-26.86l-17.3-19.84c5.81-13.3,13.07-25.81,21.6-37.34l25.84,5.08c6-7.07,12.57-13.64,19.64-19.64l-5.08-25.84c11.53-8.53,24.04-15.79,37.34-21.6l19.84,17.3c8.65-3.1,17.62-5.52,26.86-7.19l8.54-24.89c7.1-.79,14.3-1.21,21.6-1.21s14.51.42,21.6,1.21l6.83,19.91c-59.08,7.92-110.28,40.68-142.78,87.42"/>
  </g>
  <g>
    <path class="cls-3" d="M157.28,177.55l11.21-14.01,5.95,4.78-2.23,2.78c-.69-.55-1.23-.92-1.63-1.13-.41-.21-.79-.23-1.13-.05-.35.18-.76.57-1.24,1.17l8.54,6.82c.53.43.93.64,1.19.62.28-.03.63-.31,1.06-.85l2.99,2.39-5.63,7.05-2.99-2.39c.42-.53.62-.94.57-1.22-.03-.28-.32-.63-.85-1.06l-8.54-6.82c-.46.6-.74,1.09-.85,1.47-.1.37-.01.73.28,1.1.28.36.76.8,1.45,1.35l-2.2,2.76-5.95-4.78Z"/>
    <path class="cls-3" d="M171.81,160.1l13.57-11.78,4.98,5.76-2.69,2.34c-.59-.67-1.06-1.15-1.42-1.42s-.73-.35-1.1-.23c-.37.13-.84.43-1.42.92l7.17,8.27c.44.52.79.8,1.06.83.28.03.67-.18,1.19-.64l2.5,2.89-6.82,5.93-2.5-2.89c.52-.46.79-.82.8-1.08.01-.28-.2-.67-.64-1.19l-7.17-8.27c-.56.49-.93.91-1.1,1.26-.18.36-.17.73.05,1.15.22.4.61.94,1.19,1.61l-2.66,2.32-4.98-5.76Z"/>
    <path class="cls-3" d="M200.76,163.26l-2.07-3.24c.59-.38.91-.7.96-.96.06-.26-.09-.68-.46-1.26l-5.35-8.43c-.37-.58-.68-.9-.94-.96-.28-.06-.7.1-1.29.48l-2.04-3.24,7.58-4.82,2.04,3.24c-.56.36-.87.66-.92.92-.05.26.11.68.48,1.26l5.35,8.43c.37.59.67.91.92.96.26.06.67-.08,1.24-.44l2.07,3.24-7.58,4.82Z"/>
    <path class="cls-3" d="M210.33,133.86l16.93-5.97,2.53,7.19-3.35,1.17c-.29-.84-.56-1.45-.8-1.84-.23-.38-.55-.59-.94-.62-.38-.03-.94.09-1.65.34l3.63,10.31c.23.66.47,1.05.71,1.17.24.11.69.05,1.33-.18l1.26,3.63-8.5,2.99-1.26-3.63c.64-.23,1.02-.46,1.13-.69.12-.24.07-.69-.16-1.35l-3.63-10.31c-.72.25-1.22.51-1.52.78-.29.26-.4.62-.34,1.08.05.46.22,1.11.51,1.95l-3.33,1.17-2.53-7.19Z"/>
    <path class="cls-3" d="M232.79,126.35l8.89-1.19.51,3.81c-.68.09-1.08.25-1.22.46-.14.2-.16.64-.07,1.33l.34,2.71,6.89-.92-.34-2.71c-.09-.69-.25-1.11-.48-1.26-.22-.17-.66-.21-1.33-.11l-.51-3.81,8.89-1.19.51,3.81c-.66.09-1.07.25-1.22.46-.14.2-.16.64-.07,1.33l1.31,9.9c.09.69.24,1.12.44,1.29.21.16.65.18,1.31.09l.51,3.81-8.89,1.19-.51-3.81c.67-.09,1.09-.24,1.24-.44.17-.21.21-.67.11-1.35l-.34-2.71-6.89.92.34,2.71c.09.69.24,1.12.44,1.29.2.16.63.18,1.31.09l.51,3.81-8.89,1.19-.51-3.81c.67-.09,1.09-.24,1.24-.44.17-.21.21-.67.11-1.35l-1.31-9.9c-.09-.69-.25-1.11-.48-1.26-.22-.17-.65-.21-1.33-.11l-.51-3.81Z"/>
    <path class="cls-3" d="M259.55,144.57l.14-3.84c.69.03,1.13-.05,1.33-.23.2-.18.31-.62.34-1.31l.37-9.99c.03-.67-.05-1.11-.23-1.31-.18-.2-.62-.31-1.31-.34l.14-3.84,8.98.34-.14,3.84c-.68-.03-1.1.05-1.29.23s-.29.61-.32,1.29l-.37,9.99c-.03.69.03,1.14.21,1.33.17.2.59.32,1.26.34l-.14,3.84-8.98-.34Z"/>
    <path class="cls-3" d="M275.51,124.12l8.93,2.02.78,11.6,5.74-10.13,8.8,2-.85,3.74c-.68-.15-1.13-.15-1.35,0-.23.14-.42.55-.57,1.22l-2.2,9.74c-.16.67-.16,1.13-.02,1.35.15.23.56.42,1.24.57l-.85,3.74-8.75-2,.85-3.74c.65.15,1.09.16,1.31.02.23-.14.42-.54.57-1.22l1.72-7.56-6.8,11.97-3.88-.87-.9-13.85-1.75,7.67c-.16.68-.16,1.13-.02,1.35s.54.42,1.22.57l-.85,3.74-6.98-1.58.85-3.74c.67.16,1.11.16,1.33.02.23-.15.42-.56.57-1.24l2.55-11.28c-.22-.07-.45-.14-.71-.21-.25-.06-.52-.12-.83-.18l.85-3.74Z"/>
    <path class="cls-3" d="M320.07,146.86c-1.07,2.2-2.38,3.55-3.93,4.02-1.55.47-3.47.15-5.76-.96l-3.86-1.86-.6,1.24c-.29.61-.4,1.04-.32,1.29.07.26.42.53,1.03.83l-1.68,3.44-8.08-3.9,1.68-3.44c.61.31,1.04.41,1.31.32.28-.09.56-.44.85-1.06l4.34-9c.3-.63.4-1.06.3-1.31-.09-.26-.45-.54-1.06-.85l1.65-3.44,4.13,2,2.55,1.24,3.86,1.86c2.3,1.12,3.73,2.45,4.32,4,.58,1.53.33,3.4-.73,5.6ZM310.68,139.44l-2.2,4.57,3.12,1.52c.72.34,1.34.41,1.88.23.53-.18.99-.67,1.38-1.47.4-.81.49-1.48.3-2.02-.18-.53-.64-.97-1.35-1.31l-3.12-1.52Z"/>
    <path class="cls-3" d="M328.29,143.54l7.07,5.53-2.37,3.03c-.54-.42-.94-.62-1.19-.57-.25.03-.59.32-1.01.87l-1.68,2.14,5.49,4.29,1.68-2.14c.42-.55.62-.95.57-1.22-.03-.26-.32-.6-.87-1.03l2.37-3.03,7.07,5.53-2.37,3.03c-.52-.41-.91-.61-1.17-.57-.25.05-.59.34-1.01.9l-6.15,7.85c-.43.55-.64.95-.62,1.19.03.26.3.6.83,1.01l-2.37,3.03-7.07-5.53,2.37-3.03c.55.42.95.63,1.22.6.28-.03.63-.32,1.06-.87l1.68-2.14-5.49-4.29-1.68,2.14c-.43.55-.64.95-.62,1.19.03.26.31.6.85,1.03l-2.37,3.03-7.07-5.53,2.37-3.03c.53.41.93.61,1.19.6.28-.03.63-.32,1.06-.87l6.15-7.85c.42-.55.62-.95.57-1.22-.03-.28-.32-.62-.85-1.03l2.37-3.03Z"/>
    <path class="cls-3" d="M346.66,163.52l2.96-2.43,5.72,6.96-2.96,2.43c-.45-.53-.8-.82-1.08-.85-.26-.03-.66.17-1.19.6l-6.06,4.98c-.8.65-1.22,1.44-1.26,2.34-.05.92.29,1.81,1.01,2.69.72.87,1.52,1.35,2.39,1.45.87.1,1.71-.17,2.5-.83l6.06-4.98c.53-.43.82-.78.85-1.03.03-.26-.17-.66-.6-1.19l2.96-2.43,5.08,6.2-2.96,2.43c-.43-.52-.78-.8-1.06-.83-.26-.03-.66.17-1.19.6l-6.61,5.44c-3.69,3.03-7.44,2.23-11.23-2.39-3.8-4.61-3.85-8.43-.16-11.46l6.61-5.44c.53-.42.81-.78.83-1.06.03-.28-.17-.67-.6-1.19Z"/>
  </g>
  <g class="cls-11">
    <path class="cls-8" d="M259.9,342.32c-51.02,0-92.34-41.61-92.34-92.34s41.32-92.34,92.34-92.34,92.34,41.33,92.34,92.34-41.61,92.34-92.34,92.34ZM259.9,163.34c-47.88,0-86.64,38.76-86.64,86.64s38.75,86.64,86.64,86.64,86.64-38.76,86.64-86.64-39.05-86.64-86.64-86.64Z"/>
  </g>
  <g class="cls-10">
    <path class="cls-1" d="M222.86,220.38c0,1.33-1.07,2.42-2.4,2.42h-24.45c-1.33-.01-2.41-1.09-2.41-2.43s1.08-2.41,2.41-2.41h24.45c.67,0,1.27.28,1.7.71.44.44.71,1.04.71,1.71Z"/>
  </g>
  <path class="cls-1" d="M199.14,203.56v12.43h4.37v-12.43c0-1.21-.98-2.2-2.18-2.2-1.21,0-2.19.98-2.19,2.2Z"/>
  <path class="cls-1" d="M212.96,203.56v12.43s4.37,0,4.37,0v-12.43c0-1.22-.98-2.2-2.18-2.2s-2.19.99-2.19,2.2Z"/>
  <path class="cls-1" d="M195.59,224.76v11.41c0,5.57,3.8,10.24,8.94,11.53v2.97c0,.38.31.69.69.69h6.02c.38,0,.69-.31.69-.69v-2.97c5.13-1.29,8.95-5.96,8.95-11.52v-11.41s-25.28-.01-25.28-.01ZM212.64,234.16l-9.26,9.65,4.08-7-3.46-.18,5.89-8.66,3.7-.14-4.64,6.84,3.69-.5Z"/>
  <g class="cls-2">
    <path class="cls-1" d="M244.73,197.96s.03-.02.06-.03c2.06-1.19,4.81-2.2,8.39-2.5.78-.06,1.56-.04,2.33.06.24.03.48.08.71.13,0,0,0,0,0-.01.05.01.1.02.14.03.2.04.4.09.59.14l-.45-.25c-.21-.11-.43-.24-.64-.36l-.32-.18-.16-.1-.16-.09-.63-.38-.62-.39c-.1-.06-.21-.13-.31-.2l-.3-.2-.3-.2-.16-.1-.15-.1-.6-.41c-.2-.14-.39-.28-.59-.41l-.59-.42c-.78-.57-1.53-1.17-2.26-1.77l-.55-.47-.53-.48c-.18-.16-.35-.32-.52-.48l-.26-.25s-.09-.08-.13-.12l-.13-.12-.51-.5c-.17-.17-.33-.34-.49-.51l-.25-.26-.24-.26-.24-.26c-.07-.09-.16-.17-.24-.26l-.45-.53-.11-.14-.11-.14-.22-.27-.22-.27-.1-.14-.11-.14-.42-.55.48.52.12.13s.07.09.11.13l.49.51.12.13.13.13.51.49c.08.08.17.16.25.24l.26.24.26.24.27.23.53.47.55.45.14.11s.09.07.14.11l.28.22c.19.14.37.29.56.43l.57.42.58.41c.78.54,1.58,1.07,2.41,1.56l.3.19.32.18.62.36.63.35.16.09.48.26.32.17c.11.06.22.11.33.17l.64.33.65.32.16.07.17.08.33.16c.22.1.44.21.67.3l.67.3.57.25.1.05.17.07.17.07.68.28c.08.03.17.07.25.1.03.01.06.02.09.03.22.09.45.18.68.27l.69.26c.06.02.12.05.18.07.08-.98.1-1.93.07-2.83-.03-1.01-.13-1.98-.28-2.89-.74-4.6-3.24-8.2-6.69-10.52-2.39-1.6-5.28-2.32-8.3-2.84-8.11-1.39-10.86-4.35-10.86-4.35,0,0-4.89,7-1.37,15.19.05.13.11.26.16.39.3.72,1.85,4.14,5.9,7.22,1.23.93,2.69,1.84,4.43,2.62Z"/>
  </g>
  <path class="cls-1" d="M239.31,217.08s2.37-2.09,8.78-2.55c2.39-.17,4.68-.52,6.67-1.58,2.86-1.54,5.08-4.16,6-7.68.18-.71.33-1.45.44-2.23.09-.71.14-1.45.15-2.21l-.14.03-.56.16c-.18.05-.37.1-.55.16-.02,0-.05.01-.07.02-.06.02-.13.05-.2.06l-.28.08-.28.09-.14.04-.14.05-.08.02-.46.15-.55.18c-.18.06-.36.12-.53.18l-.27.1-.13.05-.14.05-.53.2-.53.21c-.09.03-.18.07-.26.1l-.26.11-.26.11-.13.05-.13.06-.52.22c-.17.07-.34.16-.51.24l-.26.11-.25.12c-.68.32-1.34.67-1.98,1.03l-.49.28-.48.28c-.16.1-.32.2-.47.3l-.24.14s-.07.05-.11.08l-.11.07-.46.31c-.15.1-.3.21-.45.32l-.22.16-.22.17-.22.17c-.07.05-.15.11-.22.16l-.43.34-.11.09-.1.09-.21.18-.21.18-.1.09-.1.09-.41.37.37-.4.09-.1s.06-.07.09-.1l.2-.19.19-.2.09-.1.1-.09.4-.38c.06-.06.13-.13.2-.18l.2-.19.2-.18.21-.18c.14-.12.28-.24.42-.36l.43-.35.11-.09s.07-.06.11-.09l.22-.17c.15-.11.29-.23.44-.34l.45-.33.45-.32c.62-.42,1.25-.83,1.89-1.21l.25-.15.24-.14c.17-.09.33-.19.49-.28l.5-.27.12-.07.13-.06.25-.13.25-.13c.09-.04.17-.09.26-.13l.51-.25.33-.16.19-.09.13-.06.13-.06.26-.11c.17-.08.34-.16.52-.24l.53-.23.53-.22.13-.06.13-.05.54-.22c.09-.03.18-.07.27-.1.16-.06.33-.13.49-.18.02-.01.03-.02.06-.02h.04s.51-.2.51-.2c.17-.06.34-.13.52-.18,0,0,0,0,.01,0s.01,0,.02,0c.03-.01.1-.04.11-.04-.03-.02-.07-.05-.1-.07-.75-.54-1.54-.99-2.37-1.34-.06-.02-.12-.05-.18-.07-.58-.24-1.17-.42-1.77-.56-.2-.05-.4-.09-.6-.13-.05,0-.1-.02-.14-.02t0,.01c-.24-.05-.47-.08-.71-.11-.78-.07-1.55-.07-2.33.01-3.57.39-6.29,1.48-8.32,2.73-.02.01-.03.02-.06.03-3.34,2.08-4.79,4.59-5.07,5.13-.05.1-.11.2-.16.29-3.35,6.11-.07,11.93-.07,11.93Z"/>
  <g class="cls-9">
    <path class="cls-1" d="M265.2,315.85c-8.18,0-16.12-1.61-23.6-4.79-7.22-3.07-13.7-7.47-19.27-13.07-5.56-5.6-9.94-12.13-12.99-19.39-3.16-7.52-4.77-15.51-4.77-23.75h7.32c0,7.24,1.41,14.27,4.19,20.88,2.68,6.38,6.53,12.13,11.43,17.05s10.6,8.8,16.94,11.49c6.57,2.8,13.55,4.21,20.75,4.21s14.18-1.42,20.74-4.21c6.35-2.7,12.05-6.57,16.95-11.49s8.74-10.67,11.43-17.05c2.78-6.61,4.19-13.64,4.19-20.88s-1.41-14.27-4.19-20.88c-2.69-6.39-6.53-12.13-11.43-17.05-4.9-4.93-10.6-8.8-16.95-11.5-6.57-2.79-13.55-4.21-20.74-4.21v-7.37c8.18,0,16.12,1.61,23.6,4.8,7.22,3.07,13.7,7.47,19.27,13.07,5.56,5.6,9.94,12.13,12.99,19.39,3.16,7.52,4.77,15.51,4.77,23.74s-1.6,16.23-4.77,23.75c-3.05,7.27-7.42,13.79-12.99,19.39-5.56,5.6-12.05,10-19.27,13.07-7.48,3.19-15.42,4.8-23.6,4.8Z"/>
  </g>
  <path class="cls-1" d="M304.27,245.78c-.88-.46-1.99-.87-3.27-1-3.38-.33-3.54,2.11-3.54,2.11-.06-.13-.13-.25-.2-.37t0-.01l-7.57-13.14c-.95-1.64-2.56-3.03-4.54-3.86-1.52-.65-3.21-.99-4.9-.99h-30.11c-1.68,0-3.38.34-4.89.99-1.99.84-3.6,2.22-4.54,3.86l-7.58,13.14h0c-.07.13-.14.26-.2.38,0,0-.16-2.45-3.54-2.11-1.28.12-2.39.54-3.26,1-1.77.94-2.73,2.62-2.36,4.32.13.56.37,1.06.86,1.36,1.37.84,6.19.46,7.23.36-.16,1.22-.26,2.44-.29,3.66,0,.35-.01.71-.01,1.06v22.67c-.01,1.3,1.6,2.34,3.59,2.34h5.05c1.99,0,3.61-1.04,3.61-2.34v-5.87h42.8v5.87c0,1.3,1.61,2.34,3.61,2.34h5.05c1.99,0,3.6-1.04,3.6-2.34v-9.93s-.01-12.74-.01-12.74c0-1.58-.1-3.16-.3-4.72,1.03.1,5.86.48,7.22-.36.48-.3.73-.8.86-1.36.37-1.71-.59-3.39-2.35-4.32ZM239.11,245.03l5.87-10.18c.53-.93,1.43-1.7,2.53-2.18.83-.35,1.72-.53,2.63-.53h30.11c.92,0,1.8.18,2.64.53,1.1.48,1.99,1.25,2.53,2.18l5.86,10.18c.47.82-.2,1.78-1.23,1.78h-49.71c-1.03,0-1.7-.96-1.23-1.78ZM237.5,270.21c-1.23,0-2.23-1-2.23-2.24s1-2.25,2.23-2.25,2.23,1.01,2.23,2.25-1,2.24-2.23,2.24ZM252.12,259.28c-.12,1.13-1,1.98-2.02,1.98h0l-9.89-.02c-1.74,0-3.07-1.67-2.86-3.59.18-1.7,1.5-2.94,2.99-2.94.2,0,.38.02.58.06l9.66,2.14c1,.22,1.67,1.25,1.54,2.37ZM275.97,270.52c0,.17-.14.3-.3.3h-20.94c-.17,0-.3-.14-.3-.3v-3.62c0-.17.13-.3.3-.3h20.94c.16,0,.3.14.3.3v3.62ZM280.3,261.26h0c-1.02,0-1.89-.86-2.02-1.98-.12-1.13.55-2.15,1.54-2.37l9.65-2.14c.2-.04.39-.06.58-.06,1.48,0,2.8,1.24,2.99,2.94.21,1.92-1.11,3.58-2.86,3.59l-9.88.02ZM292.02,270.21c-1.23,0-2.23-1-2.23-2.24s1-2.25,2.23-2.25,2.23,1.01,2.23,2.25-1,2.24-2.23,2.24Z"/>
  <g>
    <path class="cls-3" d="M167.1,310.92c-.25.07-.54.15-.84.24-.31.09-.61.18-.91.27-.3.09-.58.18-.84.27-.25.09-.46.17-.6.25l-7.4,4.12c-.07.04-.14.06-.21.08-.07.01-.13-.01-.16-.07-.04-.07-.06-.16-.07-.27,0-.11,0-.21.01-.32.03-.35.05-.79.06-1.33,0-.54-.01-1.11-.07-1.7s-.15-1.18-.28-1.77c-.13-.59-.31-1.1-.55-1.52-.06-.11-.14-.24-.23-.4s-.21-.33-.34-.52c-.13-.19-.27-.38-.42-.57-.15-.19-.31-.37-.48-.54.24-.13.48-.22.72-.27.24-.05.48-.06.7-.05s.43.05.62.11c.18.06.33.14.44.23.16-.09.36-.13.6-.13.24,0,.49.05.76.12s.53.18.78.31c.26.13.48.28.68.44-.05-.09-.11-.28-.18-.55-.07-.27-.09-.57-.08-.89.02-.33.1-.65.25-.98s.42-.6.82-.82c.27-.15.55-.25.83-.29.28-.04.48-.05.6-.02-.11-.19-.16-.32-.15-.39,0-.07.07-.15.21-.22.08-.04.17-.07.28-.09.11-.01.23-.02.35-.02l1.02-.08,4.08,7.33ZM161.32,311.69c-.12-.15-.21-.27-.29-.34-.08-.07-.17-.16-.28-.26-.11-.1-.26-.25-.45-.44-.19-.19-.44-.48-.77-.88-.13-.09-.32-.25-.58-.46-.26-.21-.53-.42-.81-.62-.28-.2-.56-.37-.83-.51-.27-.14-.47-.18-.62-.11.08.09.15.19.22.3.07.11.13.21.19.32.21.38.33.86.37,1.46s.03,1.2-.03,1.82-.14,1.19-.25,1.72c-.11.53-.19.93-.25,1.2l4.37-3.19ZM162.34,306.19c-.12-.21-.23-.36-.35-.44-.12-.09-.23-.13-.36-.14-.12,0-.25.02-.38.07-.13.05-.27.12-.42.2-.1.06-.21.16-.32.3-.11.14-.19.34-.23.59-.04.25-.02.55.05.9.08.35.25.76.52,1.24.18.31.37.6.59.86s.43.46.65.61c.22.15.44.25.67.29s.44,0,.65-.11c.24-.13.42-.24.55-.33s.22-.17.27-.23c.05-.06.08-.12.08-.17s0-.1-.03-.14l-1.94-3.48ZM171.28,301.62c.24.43.28,1,.12,1.72-.16.72-.42,1.51-.79,2.36s-.79,1.73-1.26,2.62c-.47.89-.9,1.73-1.27,2.52-.08.04-.15.04-.22-.01-.07-.05-.11-.11-.14-.16-.06-.12-.04-.36.07-.74s.25-.83.44-1.36c.18-.53.38-1.12.59-1.75s.38-1.27.5-1.91c.12-.64.18-1.25.18-1.83,0-.58-.13-1.08-.37-1.51-.06-.11-.15-.21-.26-.32-.12-.11-.25-.19-.4-.25-.15-.06-.3-.1-.46-.11-.16-.01-.32.02-.46.1-.12.07-.24.16-.36.27-.11.11-.21.25-.28.4s-.1.33-.1.52c0,.19.07.4.19.61.11.2.24.35.39.46.15.11.29.19.42.25.13.06.24.1.35.13.1.03.16.05.18.08.02.04.02.08-.01.12s-.06.06-.08.08c-.3.17-.61.27-.92.3-.31.03-.6,0-.88-.07-.28-.08-.53-.2-.76-.37-.23-.17-.4-.36-.52-.58-.12-.21-.18-.44-.19-.71s.02-.52.1-.76c.08-.25.19-.48.35-.7.16-.22.35-.39.58-.52.59-.33,1.18-.49,1.77-.49.59,0,1.13.09,1.61.26.48.18.9.4,1.24.66.35.26.57.48.67.67Z"/>
    <path class="cls-3" d="M172.02,317.88l-1.5.32c-.18.04-.34.02-.48-.07-.14-.09-.28-.21-.41-.37l-1.67,1.23c0,.36-.1.83-.27,1.4s-.38,1.16-.61,1.77c-.23.61-.48,1.19-.74,1.74-.26.55-.47.98-.63,1.29l4-3.4c.33-.29.61-.53.84-.74.23-.2.4-.38.51-.53s.18-.28.19-.4c0-.12-.03-.24-.11-.35l-.1-.13,1.96-.44,1.21,1.65c-.17.07-.4.15-.67.25-.27.1-.55.21-.84.33-.29.12-.56.25-.82.38-.26.13-.45.24-.59.34l-6.21,4.55c-.19.14-.34.13-.45-.03-.05-.07-.08-.16-.09-.29s0-.25.03-.38c.13-.45.28-.93.44-1.42s.31-.99.46-1.49c.15-.5.28-.98.4-1.47.12-.48.22-.93.29-1.36-.22.16-.53.3-.93.42-.4.12-.82.19-1.27.2-.45.01-.89-.06-1.31-.2s-.77-.4-1.04-.76c-.25-.35-.4-.71-.44-1.1-.04-.39,0-.76.11-1.13.12-.37.3-.71.55-1.04.25-.33.53-.6.84-.83.31-.23.66-.41,1.03-.53.37-.12.75-.18,1.13-.17s.75.1,1.11.29c.36.18.68.47.97.87.09.12.17.27.27.45.09.18.18.36.26.54.08.18.15.34.21.48.06.14.09.23.09.26.19-.14.33-.31.44-.52.1-.21.17-.42.2-.63.03-.21.02-.42-.02-.61-.04-.19-.1-.35-.18-.47l-.84-1.15c-.15-.2-.22-.34-.22-.4,0-.07.06-.14.17-.23.06-.05.17-.09.33-.14s.32-.09.49-.12c.17-.03.33-.06.48-.08.15-.02.26-.03.32-.04l3.1,4.23ZM166.09,319.27c.02-.09,0-.2-.02-.35-.03-.15-.07-.31-.13-.49-.06-.18-.14-.37-.25-.57-.11-.2-.22-.39-.36-.57-.31-.42-.67-.67-1.07-.72-.4-.06-.76.03-1.07.26-.16.11-.3.26-.42.44s-.21.37-.27.58c-.06.21-.07.42-.03.65s.13.44.28.64c.17.23.38.41.64.53.26.12.54.19.85.2s.62-.03.94-.13c.32-.1.62-.26.92-.47Z"/>
    <path class="cls-3" d="M173.96,324.78c-.06-.07-.09-.15-.07-.23.02-.08.07-.2.15-.36.07-.16.14-.33.21-.51s.14-.36.22-.52c.07-.17.14-.32.21-.45s.13-.23.19-.28c.11-.09.25-.15.41-.16.17-.01.32.06.47.23l.73.84c.14.16.19.33.16.49-.04.17-.11.3-.21.39-.06.05-.16.1-.31.15-.15.05-.31.1-.48.14-.17.05-.35.09-.55.14-.19.05-.37.09-.53.14-.17.06-.3.09-.38.09-.08,0-.15-.03-.21-.1Z"/>
    <path class="cls-3" d="M175.05,342.13c-.35.36-.75.62-1.2.79-.45.17-.89.26-1.34.27-.45,0-.87-.06-1.28-.2-.4-.15-.75-.36-1.03-.64-.33-.33-.55-.7-.64-1.11-.1-.41-.13-.86-.1-1.35.03-.49.1-1.02.2-1.58s.19-1.17.26-1.8c.06-.64.08-1.31.05-2.02-.03-.71-.16-1.45-.39-2.23-.1-.24-.07-.44.09-.6.05-.05.1-.06.17-.05.07.01.12.03.15.07.14.13.25.31.34.53.19.54.34,1.11.44,1.73.1.62.17,1.24.23,1.88.05.63.1,1.26.14,1.88.04.62.09,1.2.17,1.73.07.54.18,1.02.33,1.46.14.43.35.79.62,1.05.25.24.52.39.83.44.31.05.63-.1.98-.45.15-.16.26-.35.3-.57.05-.23.05-.46.01-.7-.04-.24-.12-.48-.23-.71s-.26-.43-.43-.6c-.18-.18-.38-.31-.61-.38-.03-.02-.1-.03-.18-.05-.09-.01-.18-.03-.27-.05-.09-.02-.18-.04-.27-.06-.09-.02-.14-.05-.17-.07-.04-.04-.01-.12.09-.23.1-.11.19-.21.27-.29.11-.11.27-.22.49-.32s.45-.17.72-.2.54,0,.83.07c.29.08.55.24.8.48.26.26.45.56.55.89.1.33.14.67.1,1.03-.04.35-.14.7-.32,1.05-.17.34-.4.66-.68.95ZM181.15,328.29l-1.4.57c-.31.13-.7-.04-1.16-.49-.04-.04-.19-.08-.43-.11-.25-.03-.54-.03-.88.01s-.71.13-1.1.28c-.39.14-.74.38-1.06.7.18.12.35.27.51.43.51.51.92,1.12,1.23,1.85.33-.08.68-.14,1.05-.19.37-.05.75-.07,1.14-.06.39.01.77.05,1.14.13.37.08.72.2,1.05.36.19-.33.19-.6-.01-.8l-.11-.11,1.87-.74,1.47,1.45c-.16.09-.37.22-.62.36-.26.15-.52.3-.78.47-.26.17-.51.33-.75.49s-.41.3-.53.42l-5.26,5.31c-.05.05-.12.08-.19.06s-.13-.05-.19-.11c-.07-.07-.12-.15-.15-.24s-.05-.19-.04-.27c.16-1.39.09-2.68-.21-3.87-.3-1.2-.89-2.23-1.78-3.11-.09-.09-.22-.21-.38-.34-.16-.13-.34-.27-.53-.41-.19-.14-.38-.27-.55-.39-.18-.12-.32-.21-.43-.26.12-.12.27-.24.47-.37s.4-.24.62-.33c.22-.09.44-.16.67-.2.23-.04.43-.04.6,0,.35-.35.67-.63.98-.85.31-.22.59-.39.84-.52.25-.12.47-.21.65-.26.18-.05.32-.07.4-.08l-.7-.7c-.15-.15-.24-.26-.25-.33-.02-.07.03-.16.14-.27.04-.04.12-.09.26-.15.14-.06.29-.12.45-.18.16-.06.32-.12.47-.17.16-.05.27-.09.34-.11l3.18,3.15ZM180.41,332.84c-.18-.11-.4-.19-.65-.26-.25-.07-.53-.12-.82-.16-.29-.04-.59-.06-.9-.07s-.6-.01-.88,0c.21.7.32,1.43.32,2.18,0,.75-.12,1.48-.36,2.2l3.02-3.56c.05-.06.09-.12.14-.18.05-.05.09-.1.14-.15Z"/>
    <path class="cls-3" d="M194.25,339.36c-.21.17-.43.35-.68.55-.25.2-.49.4-.73.6-.24.2-.46.39-.66.57-.2.18-.35.34-.46.47l-10.92,14.04c-.07.09-.15.13-.25.13-.09,0-.18-.04-.27-.11-.05-.04-.08-.1-.11-.18s0-.18.06-.28l10.1-14.41c.12-.17.22-.34.32-.51.1-.17.17-.33.23-.48.06-.15.09-.28.1-.39,0-.11-.02-.18-.07-.23l-1.39-1.08c-.1.1-.21.23-.33.38-.12.15-.24.3-.35.44-.11.14-.21.28-.31.4-.1.12-.17.21-.21.28l-3.91,5.03c-.09.11-.16.18-.23.2-.06.02-.11.02-.14,0-.04-.03-.06-.1-.07-.21,0-.11-.02-.24-.02-.37-.03-1.17-.12-2.11-.27-2.81-.15-.71-.45-1.24-.9-1.59-.25-.19-.52-.38-.82-.57-.3-.19-.66-.37-1.06-.55.03-.04.11-.12.25-.25.13-.12.3-.25.5-.37.2-.13.41-.23.63-.3.23-.08.45-.09.68-.05.06-.07.09-.12.11-.16s.04-.07.05-.09c.02-.03.04-.06.06-.1.03-.04.07-.09.14-.18.15-.19.32-.4.52-.63.2-.22.41-.43.63-.63s.45-.36.68-.5c.24-.14.46-.22.68-.24l-.64-.5c-.17-.13-.27-.23-.29-.3-.02-.07.01-.16.11-.29.06-.07.13-.13.23-.19.1-.06.2-.11.31-.15l.9-.45,7.82,6.08ZM187.19,336.23c-.12-.06-.31-.07-.58-.02-.26.05-.56.15-.9.29s-.68.36-1.04.62-.69.59-.98.97c.3.24.54.49.72.77.18.28.31.6.39.95s.12.76.11,1.22c0,.45-.03.98-.09,1.58.43-.67.82-1.3,1.18-1.89.36-.59.76-1.22,1.2-1.88.23-.36.4-.67.51-.92.11-.25.17-.46.19-.62.02-.16.02-.29,0-.37s-.04-.15-.06-.19l-.65-.51Z"/>
    <path class="cls-3" d="M195.1,343.21c-.08-.05-.12-.12-.13-.2,0-.08,0-.21.04-.39.03-.17.05-.35.07-.55.02-.2.04-.38.07-.56s.05-.34.08-.49c.03-.15.06-.26.11-.32.08-.12.2-.21.36-.26.16-.06.33-.03.51.09l.93.61c.18.12.28.26.29.43.01.17-.02.31-.1.43-.04.06-.13.14-.26.23-.13.09-.27.17-.42.27-.15.09-.32.19-.49.28s-.33.19-.47.28c-.15.1-.27.16-.34.19-.08.03-.15.01-.23-.04Z"/>
    <path class="cls-3" d="M206.97,346.9c-.18.2-.37.41-.59.65-.21.23-.43.47-.64.71-.21.24-.4.46-.57.67-.17.21-.3.38-.38.53l-3.66,6.52c-.04.07-.09.1-.16.11s-.14-.01-.22-.05c-.08-.05-.13-.1-.14-.16,0-.06-.02-.13-.05-.21-.11-.68-.26-1.35-.45-2-.19-.65-.44-1.26-.73-1.83s-.65-1.09-1.06-1.55c-.41-.46-.88-.84-1.43-1.15-.11-.06-.26-.14-.44-.21-.18-.08-.37-.15-.57-.22-.2-.07-.4-.13-.58-.19-.19-.06-.34-.1-.46-.13.08-.15.18-.3.31-.45.12-.15.26-.3.42-.43.16-.13.32-.24.49-.32.17-.08.34-.13.52-.13.24-.43.48-.79.73-1.09s.47-.55.69-.76c.22-.2.41-.36.58-.46s.3-.17.38-.2l-.47-.26c-.19-.11-.3-.19-.33-.25-.03-.06-.01-.16.06-.3.04-.08.11-.15.2-.22.09-.07.18-.14.28-.2l.82-.58,7.44,4.18ZM200.59,345.45c-.1-.06-.28-.07-.54-.03-.26.04-.54.14-.86.28-.32.15-.64.35-.96.62-.32.26-.59.59-.81.99.05.01.12.04.22.09.1.05.2.1.3.15.1.05.2.1.29.15.09.05.16.09.21.12.4.22.78.54,1.14.95.37.41.68.89.95,1.42.27.54.48,1.12.62,1.75.14.63.19,1.27.15,1.93l1.94-4.27c.28-.61.48-1.14.61-1.57.13-.43.11-.69-.05-.79l-3.21-1.8Z"/>
    <path class="cls-3" d="M217.13,351.37c-.12.23-.28.47-.47.73s-.38.51-.57.76c-.19.25-.37.48-.53.7s-.28.4-.35.56l-3.01,7.01c-.12.29-.24.4-.35.36-.09-.04-.24-.27-.44-.7-.15-.29-.4-.61-.75-.97s-.74-.71-1.18-1.06c-.44-.35-.89-.67-1.35-.97-.47-.3-.89-.53-1.26-.69-.11-.05-.26-.11-.44-.18-.18-.07-.39-.15-.62-.22-.23-.08-.47-.15-.71-.21s-.49-.11-.72-.14c.19-.44.42-.76.69-.96.27-.2.55-.31.84-.34s.6,0,.92.09c.32.09.63.2.93.32.33.14.71.39,1.14.73.43.35.85.73,1.26,1.14.41.42.77.83,1.1,1.25.32.42.54.78.64,1.08l.94-2.78c-.19-.43-.78-.98-1.76-1.65-.98-.67-2.43-1.41-4.35-2.24-.11-.05-.14-.12-.1-.21.03-.06.08-.15.17-.26l1.1-1.05c.85.36,1.59.74,2.23,1.13.64.39,1.19.76,1.64,1.13.45.36.8.7,1.06,1.03.26.32.43.59.5.81.04-.08.08-.22.14-.42.06-.2.12-.43.19-.68.07-.25.13-.51.19-.78.06-.27.1-.52.14-.75s.05-.43.05-.59-.04-.26-.1-.29l-5.63-2.42c-.2-.08-.32-.16-.36-.22s-.03-.16.03-.3c.04-.08.09-.16.17-.24.08-.08.17-.15.26-.23l.76-.67,7.96,3.42Z"/>
    <path class="cls-3" d="M209.56,344.27c-.12-.05-.22-.08-.29-.11-.07-.03-.18-.05-.35-.09.06-.16.16-.33.32-.5.15-.18.32-.34.5-.48.18-.14.35-.25.53-.33.17-.08.3-.11.39-.07.28.1.6.33.96.69.36.35.7.78,1.01,1.28.31.5.57,1.05.78,1.64s.3,1.18.28,1.77l.1-.13c.28-.44.56-.85.84-1.24.29-.39.62-.7.99-.94.38-.24.82-.37,1.34-.4.52-.03,1.14.09,1.88.37.3.11.56.2.77.26.21.06.41.1.61.1.2,0,.43-.02.69-.08.26-.06.58-.15.97-.28.15.05.21.12.18.19-.09.24-.31.47-.67.68-.35.21-.75.39-1.2.53-.45.14-.89.22-1.34.26-.45.03-.81,0-1.09-.1-.38-.14-.78-.19-1.18-.15s-.79.15-1.15.32c-.36.17-.68.39-.95.66-.27.27-.47.56-.58.86-.04.1-.12.16-.25.18s-.22.02-.28,0c-.11-.04-.18-.22-.21-.53-.04-.47-.19-.94-.45-1.4-.26-.46-.56-.89-.91-1.29-.35-.4-.73-.74-1.13-1.04-.4-.29-.78-.5-1.13-.63Z"/>
    <path class="cls-3" d="M218.81,354.91c-.09-.03-.15-.09-.17-.16-.02-.08-.04-.21-.05-.39-.02-.17-.04-.35-.06-.55-.03-.19-.05-.38-.07-.56-.02-.18-.03-.34-.04-.5,0-.15,0-.27.02-.34.05-.13.14-.25.28-.34s.31-.11.52-.03l1.05.37c.2.07.33.19.38.35.05.16.05.31,0,.44-.03.07-.09.17-.19.28-.1.11-.22.23-.35.36-.13.13-.26.26-.4.39s-.27.26-.39.39c-.12.13-.22.22-.29.27-.07.05-.15.05-.24.02Z"/>
    <path class="cls-3" d="M230.5,355.45l-.93,1.19c-.21.26-.62.31-1.23.14l-1.78-.49c.04.08.04.24,0,.48s-.09.51-.18.81c-.11.4-.22.75-.33,1.06-.11.31-.25.63-.41.94.64.34,1.16.77,1.57,1.29.41.52.73,1.07.97,1.64.24.58.41,1.16.51,1.75.1.59.17,1.13.2,1.6.03.48.03.87,0,1.19s-.04.49-.05.53c-.02.06-.05.13-.1.2-.05.07-.12.1-.22.07-.1-.03-.18-.09-.24-.19-.05-.1-.09-.19-.11-.29-.11-.59-.29-1.24-.54-1.95-.25-.71-.6-1.39-1.05-2.05-.45-.66-1-1.26-1.65-1.79s-1.44-.93-2.35-1.18c-.22-.06-.49-.1-.8-.13-.32-.03-.64-.04-.97-.05s-.64,0-.93.02c-.29.02-.52.04-.67.07.14-.51.35-.91.62-1.21s.59-.52.95-.65c.35-.14.74-.2,1.16-.18.42.01.83.08,1.25.19.3.08.59.18.88.28.29.11.55.23.78.38l.23-.82c.07-.26.09-.54.06-.83-.03-.29-.1-.57-.19-.83-.1-.26-.22-.49-.36-.67-.15-.19-.3-.3-.45-.34l-1.71-.47c-.21-.06-.34-.11-.38-.17-.05-.05-.05-.16,0-.3.01-.05.07-.14.16-.26s.2-.25.31-.38c.11-.13.22-.26.33-.38.11-.12.19-.21.24-.27l7.4,2.04ZM227.39,346.1c.47.13.91.51,1.31,1.13.4.62.78,1.36,1.13,2.22s.68,1.77.99,2.73c.31.96.61,1.85.9,2.67-.02.09-.08.14-.16.15s-.15,0-.21,0c-.13-.04-.29-.22-.48-.56-.19-.34-.41-.76-.67-1.27-.25-.51-.53-1.05-.83-1.65-.3-.59-.64-1.16-1-1.69-.37-.54-.76-1.01-1.18-1.41-.42-.4-.86-.67-1.34-.8-.12-.03-.25-.04-.41-.03-.16.01-.31.05-.46.1-.15.06-.28.14-.4.25-.12.11-.21.24-.25.4-.04.14-.06.29-.06.45,0,.16.03.32.09.48.06.16.16.3.3.44.14.13.33.23.57.3.22.06.42.08.6.05.18-.03.34-.07.47-.12.13-.05.24-.1.33-.16s.15-.08.19-.07c.05.01.07.04.08.09,0,.05,0,.09,0,.11-.09.34-.24.62-.43.86s-.42.43-.67.58c-.25.14-.52.24-.8.28-.28.04-.54.03-.78-.04-.23-.06-.44-.18-.64-.36-.19-.17-.35-.38-.48-.6-.12-.23-.21-.48-.25-.74s-.03-.52.04-.77c.18-.65.48-1.18.89-1.6.41-.42.85-.74,1.32-.96.46-.22.91-.36,1.34-.42.43-.06.74-.07.95,0Z"/>
    <path class="cls-3" d="M243.74,357.83c-.1.25-.21.52-.33.81-.12.29-.24.59-.35.88-.11.29-.22.56-.31.81-.09.25-.15.46-.17.63l-2.84,17.56c-.02.11-.07.19-.16.23s-.18.05-.29.03c-.06-.01-.12-.05-.18-.11-.06-.06-.09-.15-.08-.27l1.94-17.49c.02-.21.03-.41.03-.6,0-.2,0-.37-.03-.53s-.06-.29-.1-.39c-.05-.1-.1-.15-.17-.17l-1.74-.28c-.03.14-.07.3-.11.49-.04.19-.07.38-.1.55-.03.18-.06.34-.08.5s-.04.27-.06.34l-1.02,6.29c-.02.14-.06.24-.1.29-.04.05-.08.07-.12.07-.05,0-.1-.06-.17-.15-.06-.1-.13-.2-.19-.32-.59-1.01-1.12-1.79-1.59-2.34s-.99-.87-1.56-.96c-.31-.05-.64-.08-.99-.1-.36-.02-.75-.01-1.2.02,0-.05.04-.16.1-.34.06-.17.14-.36.26-.57.11-.2.25-.4.41-.57.16-.18.35-.3.57-.37.01-.09.02-.15.02-.19,0-.04,0-.07,0-.11,0-.03,0-.07,0-.12s.02-.12.04-.22c.04-.24.09-.51.16-.8.07-.29.15-.57.25-.85s.22-.53.36-.77c.14-.23.3-.41.48-.54l-.8-.13c-.21-.03-.35-.08-.4-.12-.05-.05-.07-.15-.04-.3.01-.09.05-.18.11-.28.06-.1.12-.19.2-.28l.57-.83,9.77,1.58ZM236.04,358.46c-.13,0-.31.09-.52.26-.21.17-.43.4-.65.69-.22.29-.43.64-.62,1.05-.19.41-.32.85-.4,1.32.38.06.71.17,1,.33.29.16.56.37.8.65.24.28.47.61.68,1.01.21.4.44.88.68,1.43.05-.79.1-1.53.13-2.23.03-.69.08-1.44.15-2.22.03-.43.03-.78,0-1.05-.03-.27-.07-.49-.13-.64-.06-.15-.12-.26-.18-.32-.06-.06-.11-.11-.14-.14l-.82-.13Z"/>
    <path class="cls-3" d="M246.27,360.82c-.1,0-.16-.05-.21-.12-.04-.07-.09-.19-.15-.36-.06-.16-.12-.33-.2-.51-.07-.18-.14-.36-.21-.52s-.12-.33-.17-.47c-.05-.15-.07-.26-.06-.34.01-.14.08-.28.19-.4.11-.13.28-.18.49-.16l1.11.1c.21.02.37.1.46.24.09.14.13.29.12.43,0,.08-.05.18-.12.32-.07.14-.15.28-.25.43-.09.15-.19.31-.29.48-.11.17-.2.32-.29.47-.09.16-.16.27-.21.33s-.13.09-.22.08Z"/>
    <path class="cls-3" d="M255.31,358.41l-.62,1.38c-.06.15-.13.27-.21.34-.08.08-.26.11-.53.11h-.13c.46.54.84.99,1.14,1.35.3.37.59.73.86,1.1.28.37.57.77.9,1.22.32.44.73,1.01,1.22,1.69l-.23-3.38c-.05-.7-.1-1.19-.14-1.49s-.15-.44-.29-.44h-.16s.66-1.85.66-1.85l1.99.03c-.06.26-.14.54-.22.85-.08.31-.16.62-.23.92-.07.3-.13.59-.19.85-.05.26-.08.48-.08.65l-.09,5.33h.65c-.06.24-.13.51-.21.81-.08.3-.15.6-.22.91-.07.3-.13.59-.19.87-.05.28-.08.5-.08.67l-.08,4.44c0,.4-.15.78-.44,1.15-.29.36-.63.68-1.04.96-.41.28-.83.5-1.26.66-.43.16-.8.24-1.1.23-.63-.01-1.29-.1-1.96-.28-.67-.17-1.34-.41-2.01-.72.44.8.98,1.38,1.62,1.76.64.38,1.32.57,2.04.59.77.01,1.52-.17,2.27-.54s1.58-.95,2.49-1.74c.11-.1.23-.2.36-.28.13-.09.25-.13.36-.13.06,0,.1.02.13.07s.04.09.04.15c0,.07-.03.14-.08.21-.05.08-.12.15-.18.23s-.14.15-.21.22-.13.13-.17.18c-.4.48-.8.94-1.2,1.37-.4.43-.81.8-1.23,1.11-.43.32-.88.56-1.38.74-.49.18-1.05.26-1.66.25-.71-.01-1.3-.18-1.77-.52-.47-.33-.88-.74-1.22-1.24-.34-.5-.63-1.04-.89-1.64-.25-.6-.52-1.17-.8-1.72-.02-.05-.05-.12-.09-.21-.03-.09-.05-.17-.05-.23,0-.03.02-.06.06-.11s.11-.07.19-.06c.1,0,.29.06.57.16.24.09.53.21.87.35s.72.28,1.13.42c.4.14.82.25,1.25.35s.85.15,1.27.16c.32,0,.65-.05.99-.16.34-.11.65-.26.95-.44.3-.18.56-.38.78-.6.23-.22.39-.42.49-.61-1.07-.64-2.14-1.08-3.22-1.32-1.08-.24-2.27-.37-3.56-.39-.25,0-.55.05-.88.15-.34.1-.63.19-.87.27,0-.17.02-.36.06-.58.03-.22.09-.44.16-.66.08-.22.17-.42.29-.6.12-.18.25-.31.41-.4,0-.39.05-.73.12-1.02.07-.29.16-.53.26-.73.1-.2.2-.36.3-.49s.18-.22.24-.29h-.88c-.22-.02-.35-.04-.41-.08-.06-.04-.09-.14-.08-.29,0-.08.03-.18.08-.3.05-.12.11-.25.18-.39.07-.14.14-.28.21-.42.07-.14.14-.27.2-.38l7.29.13c-.32-.3-.67-.65-1.07-1.06-.39-.4-.8-.82-1.22-1.25-.42-.43-.84-.86-1.25-1.29-.42-.43-.8-.81-1.15-1.15-.35-.34-.65-.62-.92-.83s-.45-.32-.56-.32c-.35.17-.65.38-.89.61-.24.23-.37.59-.38,1.07.63.01,1.16.16,1.56.45.41.29.73.63.98,1.02.24.39.41.77.51,1.14.1.38.14.65.14.82,0,.04-.01.08-.03.14-.02.05-.07.08-.15.08-.11,0-.22-.08-.34-.24-.14-.18-.31-.37-.52-.55-.21-.18-.45-.35-.73-.51s-.6-.28-.95-.39c-.36-.1-.76-.16-1.22-.17-.25,0-.5.02-.74.06-.24.05-.49.09-.76.14,0-.04.01-.15.03-.34.02-.19.07-.39.15-.62s.2-.44.36-.65.38-.36.66-.46c.08-.31.14-.57.18-.77.04-.21.09-.39.14-.56.06-.17.14-.32.24-.46.1-.14.25-.31.43-.5l.29-.29-.93-.02c-.22,0-.35-.03-.41-.07s-.09-.14-.08-.29c0-.05.03-.15.09-.29.06-.14.12-.29.2-.44s.15-.3.22-.45.13-.25.17-.32l5.41.09ZM253.17,368.84c-.19,0-.4.07-.62.21-.22.15-.43.33-.63.56-.2.23-.36.48-.49.76-.13.28-.2.55-.2.82.1-.02.25-.04.46-.05.21,0,.51-.01.91,0,.33,0,.73.07,1.19.2s.93.3,1.42.52.97.49,1.43.79.88.64,1.25,1.01l-.2-3.01c-.05-.63-.11-1.08-.17-1.34-.07-.26-.21-.39-.44-.39l-3.9-.07Z"/>
    <path class="cls-3" d="M250.07,354.79c-.13,0-.23,0-.31.01-.07,0-.19.02-.36.05,0-.17.03-.36.1-.59.08-.22.17-.43.28-.63s.23-.37.36-.51c.13-.14.24-.21.33-.22.3-.01.68.08,1.15.27.47.19.94.46,1.42.8.48.34.93.75,1.35,1.22.42.47.73.98.93,1.53l.05-.16c.09-.51.19-1,.3-1.47s.3-.89.55-1.25c.26-.36.62-.66,1.08-.88.47-.22,1.09-.35,1.88-.38.32-.01.59-.03.81-.05.21-.02.42-.07.61-.14s.39-.18.61-.33c.22-.15.48-.36.79-.63.16,0,.23.03.24.11,0,.26-.11.55-.35.89s-.55.65-.91.95c-.36.3-.74.55-1.14.75-.4.2-.75.31-1.05.32-.41.02-.79.12-1.15.31-.36.2-.67.44-.94.73-.27.3-.48.62-.63.97-.15.35-.22.69-.2,1.02,0,.1-.05.19-.16.26-.11.07-.2.1-.26.11-.12,0-.25-.13-.39-.41-.22-.42-.54-.79-.95-1.12-.41-.33-.86-.61-1.33-.84s-.96-.41-1.44-.53c-.48-.12-.91-.17-1.28-.16Z"/>
    <path class="cls-3" d="M270.04,357.67l-.48,1.44c-.11.32-.47.51-1.11.56l-3.19.27c-.29.02-.56.15-.83.39-.27.24-.5.53-.7.88-.2.35-.36.72-.47,1.11-.11.39-.15.75-.13,1.07.18-.12.4-.2.66-.25s.54-.08.85-.11c.78-.06,1.49,0,2.15.21s1.26.49,1.8.84,1.02.76,1.43,1.2c.42.45.77.88,1.06,1.3s.51.8.66,1.13.24.55.24.67c0,.06-.02.12-.09.16-.06.04-.13.07-.22.08-.01,0-.1-.1-.27-.3-.17-.2-.4-.45-.69-.74-.29-.29-.65-.61-1.05-.94-.41-.34-.86-.64-1.37-.92-.5-.28-1.05-.5-1.62-.66-.58-.17-1.18-.22-1.82-.17-.44.04-.94.13-1.49.29-.55.16-1.08.37-1.59.63-.02-.19-.01-.4,0-.61.02-.22.05-.42.1-.61.05-.19.11-.36.17-.51.07-.15.14-.25.22-.31-.07-.78-.03-1.49.1-2.11s.36-1.13.67-1.53l-.61.05c-.21.02-.35.01-.42-.02s-.1-.13-.11-.28c0-.05.01-.15.06-.3.04-.15.09-.3.15-.46.06-.16.12-.32.18-.47.06-.15.1-.26.13-.33l7.59-.63Z"/>
    <path class="cls-3" d="M272.8,360.1c-.1.01-.17,0-.23-.07-.06-.06-.13-.16-.23-.32-.09-.14-.2-.29-.31-.46-.11-.16-.22-.31-.32-.46-.1-.15-.19-.29-.27-.42s-.12-.24-.13-.31c-.02-.14.01-.29.09-.43.08-.15.23-.24.44-.27l1.1-.15c.21-.03.38.01.5.14.12.12.19.25.21.39.01.08,0,.19-.04.34-.04.15-.09.31-.14.48-.06.17-.11.35-.18.53-.06.18-.12.36-.17.52-.05.18-.09.3-.13.37s-.11.11-.2.13Z"/>
    <path class="cls-3" d="M283.08,355.36c0,.27-.02.56-.03.88-.01.32-.02.64-.02.95,0,.32,0,.61,0,.88,0,.27.02.49.05.65l1.44,7.34c.02.08,0,.14-.05.19-.05.05-.12.08-.2.1-.1.02-.16,0-.21-.03-.04-.04-.1-.08-.17-.13-.53-.45-1.07-.86-1.64-1.23-.57-.37-1.15-.68-1.75-.92s-1.2-.41-1.81-.49c-.61-.09-1.22-.07-1.83.05-.13.03-.29.07-.47.12-.18.06-.38.12-.57.2-.2.08-.39.16-.57.23-.18.07-.33.14-.44.2-.03-.16-.05-.35-.06-.54,0-.2,0-.4.04-.6s.09-.39.16-.57.18-.32.32-.44c-.09-.48-.15-.92-.15-1.3,0-.39,0-.73.04-1.02.03-.3.08-.54.14-.73.06-.19.11-.32.16-.4l-.53.1c-.21.04-.35.05-.42.02s-.11-.12-.14-.27c-.02-.09-.02-.19,0-.3.02-.11.05-.22.09-.33l.25-.98,8.38-1.64ZM277.28,358.39c-.12.02-.26.13-.43.33s-.33.46-.47.77c-.15.32-.25.68-.33,1.09s-.07.84.02,1.28c.04-.02.12-.05.22-.07.11-.03.21-.05.32-.08s.22-.05.32-.07c.1-.02.18-.04.24-.05.45-.09.94-.09,1.49-.01.55.08,1.1.23,1.65.47.55.23,1.09.54,1.6.93s.97.84,1.37,1.37l-1.28-4.51c-.19-.65-.37-1.18-.55-1.59s-.36-.6-.55-.56l-3.61.71Z"/>
    <path class="cls-3" d="M292.64,352.61l-.17,1.51c-.04.33-.36.59-.97.77l-1.57.46.52,1.77,3.1-.92-.17,1.51c-.04.34-.36.59-.97.77l-2.64.78c-.38.11-.68.28-.9.5-.22.22-.38.48-.48.77-.1.29-.13.61-.11.96.02.35.09.71.2,1.08.05-.05.15-.13.31-.23.16-.1.33-.2.52-.31.19-.11.36-.21.53-.3.17-.09.28-.15.35-.17.77-.23,1.47-.3,2.1-.22s1.2.28,1.7.59c.5.31.95.71,1.35,1.22s.76,1.06,1.07,1.68c.31.62.6,1.28.84,1.97.25.7.47,1.38.67,2.06l1.12,3.79c.04.12.02.22-.04.3-.07.07-.13.12-.2.14-.08.02-.17.02-.26-.01-.09-.03-.16-.1-.2-.21l-1.26-3.37c-.33-.9-.7-1.77-1.12-2.61-.42-.84-.9-1.55-1.44-2.14-.54-.59-1.15-1.01-1.84-1.27-.68-.26-1.45-.26-2.31,0-.24.07-.51.18-.79.33-.29.15-.57.3-.84.45-.27.15-.51.3-.73.43-.21.13-.35.21-.42.24-.04-.15-.07-.39-.08-.73-.01-.34.07-.68.24-1.03-.16-.54-.28-.98-.34-1.31-.07-.33-.1-.61-.09-.83,0-.22.05-.42.12-.58.07-.16.16-.35.25-.57l-.83.24c-.16.05-.27.06-.32.02s-.1-.12-.14-.25c-.01-.05-.01-.15,0-.3s.04-.32.08-.49c.04-.17.07-.34.1-.5.03-.16.05-.28.06-.35l2.83-.84-.12-.39c-.13-.43-.34-.73-.63-.89s-.57-.22-.85-.16l-1.55.46c-.21.06-.34.08-.41.06-.07-.02-.12-.1-.17-.25-.01-.05-.02-.15,0-.3.01-.15.03-.31.05-.48.03-.17.05-.33.08-.5.03-.16.05-.28.06-.35l6.69-1.97Z"/>
    <path class="cls-3" d="M303.11,348.58v1.51c-.02.34-.31.62-.9.86l-1.72.69c.08.04.18.16.29.37.12.21.23.46.35.75.15.38.28.73.38,1.05s.18.65.25,1c.71-.12,1.39-.1,2.03.07.64.17,1.23.41,1.77.72.54.31,1.03.67,1.47,1.08.44.41.82.79,1.13,1.15.31.36.56.67.73.94.17.27.26.42.28.45.02.06.04.13.04.22,0,.09-.04.15-.13.19-.1.04-.2.04-.3,0-.1-.04-.19-.1-.27-.16-.45-.4-.99-.81-1.62-1.22-.63-.41-1.32-.74-2.08-.99-.75-.25-1.55-.39-2.4-.42-.85-.03-1.71.14-2.58.49-.21.09-.45.21-.72.38-.27.17-.53.35-.8.55s-.5.39-.72.58c-.22.19-.38.35-.49.46-.2-.49-.28-.94-.24-1.34.04-.41.15-.77.35-1.09s.47-.61.81-.85c.34-.24.71-.44,1.11-.61.29-.12.58-.22.87-.31.29-.09.58-.15.85-.18l-.32-.79c-.1-.25-.25-.48-.45-.69-.2-.21-.42-.39-.65-.54-.23-.15-.47-.25-.7-.31-.23-.06-.42-.06-.56,0l-1.65.67c-.2.08-.34.11-.41.1s-.13-.09-.19-.24c-.02-.05-.03-.15-.03-.3,0-.15,0-.32.02-.49,0-.17.02-.34.03-.5.01-.16.02-.28.03-.36l7.11-2.87Z"/>
    <path class="cls-3" d="M306.56,350.06c-.09.04-.17.04-.24,0-.07-.04-.17-.12-.31-.24-.13-.11-.27-.22-.43-.34-.16-.12-.3-.24-.44-.35s-.27-.22-.38-.32-.19-.19-.22-.26c-.06-.13-.07-.28-.04-.44s.15-.29.34-.39l1.01-.47c.2-.09.37-.1.52-.02.15.08.25.18.32.31.03.07.05.18.06.34s0,.32,0,.5c0,.18,0,.37-.01.56,0,.2-.01.38-.01.55,0,.18,0,.31-.01.39-.02.08-.07.14-.15.18Z"/>
    <path class="cls-3" d="M316.22,340.64c.08.15.07.25-.05.32s-.33.08-.65.06c-.32-.02-.69-.06-1.14-.12-.44-.06-.93-.12-1.47-.18-.54-.06-1.08-.11-1.63-.14-.43-.03-.9-.04-1.41-.02-.51.01-1.01.05-1.5.1s-.94.12-1.35.21-.74.2-.97.33c-.11.06-.2.11-.27.15-.06.04-.16.11-.3.21-.08-.15-.14-.34-.17-.57-.03-.23-.04-.47-.02-.7.02-.23.05-.44.1-.62.05-.19.12-.3.21-.35.42-.23.9-.39,1.44-.48.54-.09,1.11-.13,1.71-.11.6.01,1.21.07,1.84.17.63.1,1.24.23,1.83.37.6.15,1.16.31,1.69.49.53.18,1,.35,1.41.52l.48.2c.08.03.15.09.2.18ZM313.2,343.41l.16,1.51c.02.18,0,.33-.04.43-.04.11-.21.24-.49.4.67.23,1.22.43,1.65.6.43.16.86.33,1.27.51.41.18.87.37,1.36.59.49.22,1.12.5,1.89.84l-1.98-2.87c-.21-.3-.38-.54-.51-.73s-.25-.34-.34-.43-.18-.15-.25-.16c-.07-.01-.14,0-.21.04l-.14.08-.36-1.93,1.8-1.01c.07.25.15.54.23.85.08.31.16.62.25.92.08.3.17.58.25.84s.16.46.25.61l2.6,4.65.57-.32c.07.25.15.53.24.84.09.31.18.61.27.9.09.3.18.57.27.83.09.25.17.46.25.6l3.17,5.67c.04.07.03.14-.02.21-.05.07-.11.13-.18.17-.08.05-.17.07-.27.06-.1,0-.18-.02-.23-.05-.75-.24-1.46-.39-2.12-.44-.66-.05-1.29-.02-1.88.08-.6.1-1.18.26-1.74.49-.56.23-1.13.51-1.69.82-.22.12-.47.28-.76.47-.29.19-.51.38-.68.56-.16-.29-.28-.64-.33-1.04-.06-.4,0-.75.19-1.06-.19-.34-.35-.69-.48-1.05-.13-.37-.23-.71-.29-1.02-.07-.32-.11-.6-.14-.83-.02-.24-.02-.4,0-.49l-.31.18c-.19.1-.32.15-.39.15s-.14-.07-.22-.21c-.03-.05-.05-.14-.07-.29-.02-.15-.04-.31-.05-.48-.01-.17-.02-.34-.03-.5,0-.16-.01-.28-.01-.36l3.34-1.87.16,1.51c.04.33-.22.66-.78.97-.17.09-.29.29-.38.58-.08.29-.13.62-.13,1,0,.37.03.76.11,1.15.08.39.2.74.36,1.03.09-.06.18-.13.28-.19s.2-.12.3-.18c.5-.28,1.05-.51,1.64-.68.59-.17,1.2-.27,1.83-.29.63-.02,1.26.05,1.88.2.63.15,1.23.41,1.81.79l-2.49-3.65c-.49-.7-.87-1.18-1.15-1.42-.28-.25-.49-.33-.63-.25l-.16.09-.2-2.02.33-.18c-.44-.12-.94-.27-1.49-.43s-1.12-.33-1.71-.5-1.17-.33-1.73-.48c-.57-.16-1.09-.29-1.57-.39-.48-.1-.88-.18-1.21-.22-.33-.05-.54-.04-.65.02-.1.13-.19.29-.26.48s-.11.37-.14.56-.03.38,0,.56c.02.18.06.33.13.46.55-.31,1.08-.44,1.59-.38.51.06.96.19,1.37.41.41.21.75.47,1.03.76.28.29.46.51.54.65.02.03.03.08.04.15.01.07-.01.12-.06.15-.04.02-.11.04-.19.04-.09,0-.18-.01-.27-.05-.12-.05-.31-.11-.56-.17-.25-.07-.54-.11-.88-.12-.34-.01-.7.02-1.09.09-.39.07-.79.22-1.18.44-.22.12-.42.26-.61.41s-.38.32-.58.53c-.02-.03-.07-.14-.14-.31-.08-.17-.14-.38-.18-.61-.04-.23-.05-.48-.02-.75s.14-.51.33-.73c-.15-.27-.28-.62-.37-1.06-.1-.43-.08-.9.06-1.41l.11-.39-.83.46c-.18.1-.3.15-.38.15-.08,0-.15-.07-.23-.21-.03-.05-.05-.14-.07-.29s-.04-.31-.05-.48c-.01-.17-.02-.34-.03-.5-.01-.16-.01-.28-.02-.36l4.74-2.65Z"/>
    <path class="cls-3" d="M323.4,336.84l.21,1c.12-.02.26,0,.41.08s.33.19.5.33c.18.14.36.31.53.5.18.19.35.39.51.61.23.32.41.71.53,1.16.12.45.14.95.06,1.52.43-.23.89-.36,1.38-.4.5-.04,1-.02,1.5.04.5.07,1,.17,1.47.32.48.15.9.3,1.28.46l-3.41-4.06c-.29-.34-.53-.62-.73-.85-.2-.23-.38-.4-.53-.52s-.28-.18-.4-.19-.24.03-.35.11l-.13.09-.42-1.97,1.63-1.17c.07.17.15.4.26.67s.22.55.35.84c.12.29.25.55.37.81.12.25.23.45.33.59l4.5,6.26c.13.18.13.31,0,.4-.09.06-.21.1-.37.13-.16.02-.36,0-.61-.04-.39-.07-.82-.15-1.31-.23-.48-.08-.98-.12-1.5-.12s-1.05.07-1.58.2c-.53.14-1.03.37-1.51.72-.22.16-.41.31-.55.44s-.25.24-.33.34c-.08.11-.15.21-.21.29-.16-.22-.29-.45-.39-.68-.1-.24-.16-.47-.17-.7-.01-.23.04-.45.14-.67s.28-.42.53-.6c.07-.32.02-.68-.15-1.07-.17-.4-.37-.76-.61-1.1-.11-.15-.23-.29-.38-.44-.15-.15-.33-.25-.53-.32-.2-.07-.44-.07-.71-.02s-.57.21-.91.45c-.61.44-.97.89-1.07,1.34s-.01.88.27,1.26c.17.23.35.43.55.58.2.16.4.31.61.46s.41.3.61.47c.21.16.39.36.56.59.11.16.21.36.28.6.07.24.12.48.15.72.03.23.03.44,0,.63s-.07.3-.14.35c-.06.04-.11.06-.14.04-.04-.01-.06-.03-.08-.05-.01-.02-.03-.05-.03-.07,0-.03-.02-.05-.03-.07-.18-.25-.37-.45-.57-.6-.2-.15-.41-.29-.62-.43s-.42-.29-.62-.45c-.2-.16-.41-.38-.6-.65-.32-.44-.6-.94-.85-1.5-.25-.56-.42-1.13-.51-1.7-.09-.57-.07-1.11.07-1.63.14-.51.44-.94.91-1.27l2.54-1.82Z"/>
    <path class="cls-3" d="M331.39,334.2c-.07.06-.15.08-.23.06-.08-.02-.2-.07-.36-.15-.15-.07-.32-.15-.5-.22-.18-.08-.35-.15-.52-.22s-.31-.15-.45-.22-.23-.14-.28-.2c-.09-.11-.14-.25-.15-.42-.01-.17.07-.32.23-.46l.85-.72c.16-.14.33-.19.5-.15.16.04.29.11.38.22.05.06.1.16.14.31.05.15.09.31.13.48.04.17.09.36.13.55.04.19.09.37.13.53.05.17.08.3.09.38,0,.08-.03.15-.1.21Z"/>
    <path class="cls-3" d="M338.95,323.3c.14.21.28.43.42.68.14.24.28.47.42.7.14.22.28.43.4.62.13.19.25.35.37.47l5.07,5.23c.14.15.15.29,0,.42-.05.05-.19.08-.4.08-.22,0-.47,0-.78,0s-.64,0-1.01,0-.73.02-1.09.07c-.36.05-.69.12-1.01.22-.32.1-.58.25-.79.45-.12.12-.24.25-.37.41-.12.16-.24.32-.35.48-.11.16-.2.32-.27.47-.07.15-.12.28-.13.38-.04-.04-.11-.13-.22-.27-.11-.14-.23-.31-.34-.51-.11-.19-.21-.4-.28-.6s-.09-.39-.04-.54c-.31-.32-.59-.67-.84-1.05-.24-.37-.45-.73-.62-1.08-.17-.35-.3-.67-.4-.97-.1-.3-.16-.54-.18-.72l-1.93,1.88c-.05.05-.09.13-.11.25s-.02.25,0,.4c.02.15.05.3.12.46.06.16.15.3.27.44l5.25,6.24c.06.08.11.16.12.23.02.07,0,.13-.05.18-.19.18-.37.19-.53.02l-6.34-6.02c-.06-.06-.14-.24-.22-.54-.09-.29-.17-.61-.24-.96-.07-.34-.13-.66-.17-.95-.04-.29-.03-.46.02-.51l6.24-6.06ZM337.9,326.89c-.15.15-.23.42-.21.81.01.39.08.82.21,1.27.12.46.29.9.5,1.33s.42.75.63.98c.1-.13.2-.26.3-.37.1-.11.19-.22.29-.31.23-.23.53-.37.89-.45.36-.07.74-.1,1.14-.09.4.01.79.05,1.18.11.39.06.72.11,1.01.15l-3.24-2.8c-.35-.31-.65-.55-.9-.72-.25-.17-.46-.29-.63-.37s-.31-.1-.42-.09c-.11.02-.2.05-.28.11l-.45.44Z"/>
    <path class="cls-3" d="M345.67,315.35l.69,1.35c.15.3.03.69-.38,1.18l-2.05,2.46c-.18.22-.29.51-.31.87-.02.36.02.73.13,1.11.11.39.26.76.46,1.11.2.36.42.64.67.84.04-.21.14-.43.28-.64s.32-.44.52-.68c.5-.6,1.05-1.06,1.66-1.39s1.23-.56,1.86-.69c.63-.13,1.26-.19,1.86-.18.61.02,1.17.07,1.67.16.5.09.93.2,1.27.32.34.12.56.22.65.3.05.04.07.1.06.18s-.05.15-.1.21c0,0-.14,0-.4-.02-.26-.02-.6-.03-1.01-.03s-.89.03-1.41.09c-.52.05-1.06.16-1.61.33-.55.17-1.09.4-1.61.69-.53.3-.99.69-1.4,1.17-.28.34-.56.76-.84,1.26-.28.5-.5,1.03-.67,1.57-.15-.12-.29-.27-.43-.43-.14-.16-.26-.33-.36-.5-.1-.17-.18-.33-.24-.48-.06-.15-.08-.28-.07-.37-.6-.5-1.08-1.02-1.43-1.55s-.55-1.05-.62-1.56l-.39.47c-.14.17-.24.26-.31.28s-.16-.02-.28-.12c-.04-.03-.1-.12-.17-.25-.07-.13-.15-.28-.22-.43-.07-.15-.14-.31-.21-.46-.07-.15-.12-.26-.14-.33l4.88-5.85Z"/>
    <path class="cls-3" d="M349.36,315.03c-.06.08-.12.12-.21.12-.08,0-.21-.02-.39-.06-.17-.03-.35-.07-.54-.1s-.38-.06-.55-.09c-.18-.03-.34-.07-.49-.1-.15-.04-.26-.08-.32-.12-.11-.08-.2-.21-.24-.37-.05-.16,0-.33.12-.5l.66-.9c.13-.17.28-.26.45-.26.17,0,.31.04.43.12.06.05.13.14.21.27.08.13.16.28.25.44.08.16.17.33.26.5.09.17.17.34.26.49.09.16.15.27.17.35.02.08,0,.15-.05.23Z"/>
    <path class="cls-3" d="M349.14,310.42c.1-.14.19-.23.28-.27.09-.04.2-.03.32.06.2.14.38.3.54.49.16.19.33.38.51.58.18.2.35.4.51.61.16.21.35.38.56.53l14.52,10.04c.05.04.1.11.14.21.04.1.01.22-.08.36-.05.07-.13.1-.24.11-.11,0-.19-.01-.25-.05l-14.88-9.24c-.06-.04-.16-.09-.29-.14-.13-.05-.27-.09-.41-.13-.14-.04-.28-.06-.42-.07-.14-.01-.27,0-.37,0l-.65-.45-.8-1.16,1.01-1.46Z"/>
  </g>
</svg>