<?xml version="1.0" encoding="UTF-8"?>
<svg xmlns="http://www.w3.org/2000/svg" id="Layer_1" data-name="Layer 1" viewBox="0 0 200 174.8">
  <defs>
    <style>.cls-1{fill:#fff;}</style>
  </defs>
  <title>0</title>
  <path class="cls-1" d="M103.14,38.11A16.36,16.36,0,1,1,119.5,21.76,16.35,16.35,0,0,1,103.14,38.11Z"></path>
  <path class="cls-1" d="M200.3,154.44a15.3,15.3,0,1,1-18.13-15V124.09H150.33v15.12a15.32,15.32,0,1,1-3.19,0V120.91h18.05V107.1h-.35A15.3,15.3,0,0,1,162,76.78V59.34H42.05V76.72A15.3,15.3,0,0,1,41,107.05v12.8H58v20.37a15.25,15.25,0,1,1-3.19.25V123H23v17.24a15.32,15.32,0,1,1-3.19,0V119.85H37.81V107a15.29,15.29,0,0,1,1.06-30.46V56.16h61.57v-18h3.18v18h61.57V76.53a15.29,15.29,0,0,1,3.18,30.17v14.21h17v18.25A15.28,15.28,0,0,1,200.3,154.44Z"></path>
</svg>
