<?xml version="1.0" encoding="UTF-8"?>
<svg xmlns="http://www.w3.org/2000/svg" id="Layer_1" data-name="Layer 1" viewBox="0 0 169.45 133.9">
  <defs>
    <style>.cls-1{fill:#fff;}</style>
  </defs>
  <title>0</title>
  <polygon class="cls-1" points="31.45 5.8 31.45 13 13 13 13 31.45 5.8 31.45 5.8 5.8 31.45 5.8"></polygon>
  <polygon class="cls-1" points="31.45 130 31.45 122.8 13 122.8 13 104.35 5.8 104.35 5.8 130 31.45 130"></polygon>
  <polygon class="cls-1" points="101.2 5.8 101.2 13 119.65 13 119.65 31.45 126.85 31.45 126.85 5.8 101.2 5.8"></polygon>
  <polygon class="cls-1" points="101.2 130 101.2 122.8 119.65 122.8 119.65 104.35 126.85 104.35 126.85 130 101.2 130"></polygon>
  <path class="cls-1" d="M66.33,117.49a49.37,49.37,0,1,1,49.36-49.37A49.42,49.42,0,0,1,66.33,117.49Zm0-87.75a38.39,38.39,0,1,0,38.38,38.38A38.43,38.43,0,0,0,66.33,29.74Z"></path>
  <rect class="cls-1" x="130.31" y="59.03" width="10.8" height="61.71" transform="translate(5.72 187.85) rotate(-70.52)"></rect>
  <rect class="cls-1" x="127.54" y="76.09" width="20.42" height="29.47" transform="translate(6.19 190.41) rotate(-70.52)"></rect>
  <path class="cls-1" d="M34,68.22a22.13,22.13,0,0,0,11.37-.11c2.37-.69,4.7-1.49,7.06-2.19a15,15,0,0,1,9.51.13,80.44,80.44,0,0,0,7.93,2.24c3.4.8,6.83.09,10.24-.12A35.71,35.71,0,0,1,85.9,68a6.15,6.15,0,0,1,5.62,5.79c.12,1,.1,1.94.14,3-.2-.06-.28-.07-.28-.08.12-1-.44-1.14-1.23-1.24a11.93,11.93,0,0,0-5.67.72,48.08,48.08,0,0,1-7.89,2.56,35.44,35.44,0,0,1-7.78.15,36.73,36.73,0,0,1-15.92-4.41,26.76,26.76,0,0,1-6.9-5.2,1,1,0,0,0-1.17-.35,19.69,19.69,0,0,1-10.49-.53A3.17,3.17,0,0,1,34,68.22ZM55.5,66.09c0,.24,0,.44.06.63a13,13,0,0,0,7.68,9.74,23.17,23.17,0,0,0,14,1.52,9.92,9.92,0,0,0,6.6-3.8,10.18,10.18,0,0,0,2.06-5.87l-7.49.31c.91,3.78,0,6.74-3.3,8.62a6.44,6.44,0,0,1-7.58-.58c-2.93-2.32-3.44-5.36-2-8.88C62.16,67,59.07,65.36,55.5,66.09Zm-9.4,2.45c5.15,5.25,11.3,7.94,18.21,9.15-5.2-2.14-8.57-5.8-9.5-11.65Zm45.15,6.52c-.06-3.44-2.07-6.15-4.57-6.49a31.28,31.28,0,0,1-1.25,4,30.23,30.23,0,0,1-2.26,3.5A11.23,11.23,0,0,1,91.25,75.06Zm-23.9-6.68c-.69-.43-1-.22-1.3.46a6.19,6.19,0,0,0,1.71,6.9,6.08,6.08,0,0,0,7.2.55,6.18,6.18,0,0,0,2.72-6.63c-.18-.78-.55-1-1.25-.67.71,3.08.07,5.11-2,6.42a5.09,5.09,0,0,1-5.81-.32C66.62,73.49,66.24,71.46,67.35,68.38Z"></path>
  <path class="cls-1" d="M93.36,64.11l-1.55-2A19.85,19.85,0,0,0,84.4,55.9a22.93,22.93,0,0,0-8.46-1.63,59.14,59.14,0,0,0-12.09,1.1,33.7,33.7,0,0,1-12.74-.22,23.35,23.35,0,0,1-10.42-4.94,7.38,7.38,0,0,0-1-.62l.28-.34c.16.09.34.18.5.29a24.64,24.64,0,0,0,12.91,4.69c4.39.42,8.61-.47,12.86-1.32A49.15,49.15,0,0,1,77.69,51.6c7.33.26,12.26,4,15.19,10.54.27.61.48,1.24.72,1.86Z"></path>
  <path class="cls-1" d="M33.79,66.68c1.31.31,2.6.71,3.93.9A13.55,13.55,0,0,0,46,66.15a34.74,34.74,0,0,1,7.56-3,13.5,13.5,0,0,1,7,.15c1.94.55,3.89,1,5.79,1.68A25.23,25.23,0,0,0,78,65.72a38.9,38.9,0,0,1,7.6-.6c5.53.3,8.82,3.77,9.23,9.32a5.89,5.89,0,0,1-.12,2c-.19-1-.33-2-.59-2.93-1.29-4.84-4.56-7.25-9.56-7-1.92.1-3.84.34-5.74.63A26.14,26.14,0,0,1,65.63,66c-1.38-.51-2.83-.82-4.2-1.35a14.64,14.64,0,0,0-11,.29c-2.19.85-4.31,1.9-6.54,2.6A13.4,13.4,0,0,1,33.79,66.68Z"></path>
</svg>
